<?xml version="1.0" encoding="UTF-8" standalone="no"?>
<svg
   xmlns:dc="http://purl.org/dc/elements/1.1/"
   xmlns:cc="http://creativecommons.org/ns#"
   xmlns:rdf="http://www.w3.org/1999/02/22-rdf-syntax-ns#"
   xmlns:svg="http://www.w3.org/2000/svg"
   xmlns="http://www.w3.org/2000/svg"
   xmlns:sodipodi="http://sodipodi.sourceforge.net/DTD/sodipodi-0.dtd"
   xmlns:inkscape="http://www.inkscape.org/namespaces/inkscape"
   width="168"
   height="156"
   viewBox="0 0 168 156"
   fill="none"
   version="1.1"
   id="svg4"
   sodipodi:docname="Galaxy2.svg"
   inkscape:version="0.92.5 (2060ec1f9f, 2020-04-08)">
  <metadata
     id="metadata10">
    <rdf:RDF>
      <cc:Work
         rdf:about="">
        <dc:format>image/svg+xml</dc:format>
        <dc:type
           rdf:resource="http://purl.org/dc/dcmitype/StillImage" />
        <dc:title></dc:title>
      </cc:Work>
    </rdf:RDF>
  </metadata>
  <defs
     id="defs8" />
  <sodipodi:namedview
     pagecolor="#ffffff"
     bordercolor="#666666"
     borderopacity="1"
     objecttolerance="10"
     gridtolerance="10"
     guidetolerance="10"
     inkscape:pageopacity="0"
     inkscape:pageshadow="2"
     inkscape:window-width="1920"
     inkscape:window-height="1016"
     id="namedview6"
     showgrid="false"
     inkscape:zoom="1.5128205"
     inkscape:cx="84"
     inkscape:cy="78"
     inkscape:window-x="0"
     inkscape:window-y="27"
     inkscape:window-maximized="1"
     inkscape:current-layer="svg4" />
  <path
     d="m0 89c0-39.4 31.6-77 74-77 33.8 0 61 23.2 61 58 0 20.8-16.2 44-41 44-22 0-34-14-34-31-3.6 0-6 6-6 12 0 16.6 19.8 34 43 34 30.4 0 62-27.8 62-69 0-25.6-12.4-47-23-60 13 11 32 32.8 32 67 0 39.4-31.6 77-74 77-33.8 0-61-23.2-61-58 0-20.8 16.2-44 41-44 22 0 34 14 34 31 3.6 0 6-6 6-12 0-16.6-19.8-34-43-34-30.4 0-62 27.8-62 69 0 25.6 12.4 47 23 60-13-11-32-32.8-32-67z"
     fill="#ffffff"
     id="path2"
     style="fill:#fffffb;fill-opacity:1" />
</svg>
